<svg width="152" height="23" viewBox="0 0 152 23" fill="none" xmlns="http://www.w3.org/2000/svg">
<path d="M0.113636 18V0.545454H6.21591C7.43182 0.545454 8.43466 0.755682 9.22443 1.17614C10.0142 1.59091 10.6023 2.15057 10.9886 2.85511C11.375 3.55398 11.5682 4.32954 11.5682 5.18182C11.5682 5.93182 11.4347 6.55114 11.1676 7.03977C10.9063 7.52841 10.5597 7.91477 10.1278 8.19886C9.7017 8.48295 9.23864 8.69318 8.73864 8.82955V9C9.27273 9.03409 9.80966 9.22159 10.3494 9.5625C10.8892 9.90341 11.3409 10.392 11.7045 11.0284C12.0682 11.6648 12.25 12.4432 12.25 13.3636C12.25 14.2386 12.0511 15.0256 11.6534 15.7244C11.2557 16.4233 10.6278 16.9773 9.76989 17.3864C8.91193 17.7955 7.79545 18 6.42045 18H0.113636ZM2.22727 16.125H6.42045C7.80114 16.125 8.78125 15.858 9.3608 15.3239C9.94602 14.7841 10.2386 14.1307 10.2386 13.3636C10.2386 12.7727 10.0881 12.2273 9.78693 11.7273C9.4858 11.2216 9.05682 10.8182 8.5 10.517C7.94318 10.2102 7.28409 10.0568 6.52273 10.0568H2.22727V16.125ZM2.22727 8.21591H6.14773C6.78409 8.21591 7.35795 8.09091 7.86932 7.84091C8.38636 7.59091 8.79545 7.23864 9.09659 6.78409C9.40341 6.32955 9.55682 5.79545 9.55682 5.18182C9.55682 4.41477 9.28977 3.7642 8.75568 3.23011C8.22159 2.69034 7.375 2.42045 6.21591 2.42045H2.22727V8.21591ZM20.7685 18.2727C19.5866 18.2727 18.5497 17.9915 17.6577 17.429C16.7713 16.8665 16.0781 16.0795 15.5781 15.0682C15.0838 14.0568 14.8366 12.875 14.8366 11.5227C14.8366 10.1591 15.0838 8.96875 15.5781 7.9517C16.0781 6.93466 16.7713 6.14489 17.6577 5.58239C18.5497 5.01989 19.5866 4.73864 20.7685 4.73864C21.9503 4.73864 22.9844 5.01989 23.8707 5.58239C24.7628 6.14489 25.456 6.93466 25.9503 7.9517C26.4503 8.96875 26.7003 10.1591 26.7003 11.5227C26.7003 12.875 26.4503 14.0568 25.9503 15.0682C25.456 16.0795 24.7628 16.8665 23.8707 17.429C22.9844 17.9915 21.9503 18.2727 20.7685 18.2727ZM20.7685 16.4659C21.6662 16.4659 22.4048 16.2358 22.9844 15.7756C23.5639 15.3153 23.9929 14.7102 24.2713 13.9602C24.5497 13.2102 24.6889 12.3977 24.6889 11.5227C24.6889 10.6477 24.5497 9.83239 24.2713 9.0767C23.9929 8.32102 23.5639 7.71023 22.9844 7.24432C22.4048 6.77841 21.6662 6.54545 20.7685 6.54545C19.8707 6.54545 19.1321 6.77841 18.5526 7.24432C17.973 7.71023 17.544 8.32102 17.2656 9.0767C16.9872 9.83239 16.848 10.6477 16.848 11.5227C16.848 12.3977 16.9872 13.2102 17.2656 13.9602C17.544 14.7102 17.973 15.3153 18.5526 15.7756C19.1321 16.2358 19.8707 16.4659 20.7685 16.4659ZM35.0888 18.2727C33.907 18.2727 32.87 17.9915 31.978 17.429C31.0916 16.8665 30.3984 16.0795 29.8984 15.0682C29.4041 14.0568 29.157 12.875 29.157 11.5227C29.157 10.1591 29.4041 8.96875 29.8984 7.9517C30.3984 6.93466 31.0916 6.14489 31.978 5.58239C32.87 5.01989 33.907 4.73864 35.0888 4.73864C36.2706 4.73864 37.3047 5.01989 38.1911 5.58239C39.0831 6.14489 39.7763 6.93466 40.2706 7.9517C40.7706 8.96875 41.0206 10.1591 41.0206 11.5227C41.0206 12.875 40.7706 14.0568 40.2706 15.0682C39.7763 16.0795 39.0831 16.8665 38.1911 17.429C37.3047 17.9915 36.2706 18.2727 35.0888 18.2727ZM35.0888 16.4659C35.9865 16.4659 36.7251 16.2358 37.3047 15.7756C37.8842 15.3153 38.3132 14.7102 38.5916 13.9602C38.87 13.2102 39.0092 12.3977 39.0092 11.5227C39.0092 10.6477 38.87 9.83239 38.5916 9.0767C38.3132 8.32102 37.8842 7.71023 37.3047 7.24432C36.7251 6.77841 35.9865 6.54545 35.0888 6.54545C34.1911 6.54545 33.4524 6.77841 32.8729 7.24432C32.2933 7.71023 31.8643 8.32102 31.5859 9.0767C31.3075 9.83239 31.1683 10.6477 31.1683 11.5227C31.1683 12.3977 31.3075 13.2102 31.5859 13.9602C31.8643 14.7102 32.2933 15.3153 32.8729 15.7756C33.4524 16.2358 34.1911 16.4659 35.0888 16.4659ZM45.9659 13.2273L45.9318 10.7386H46.3409L52.0682 4.90909H54.5568L48.4545 11.0795H48.2841L45.9659 13.2273ZM44.0909 18V0.545454H46.1023V18H44.0909ZM52.4091 18L47.2955 11.5227L48.7273 10.125L54.9659 18H52.4091ZM91.5327 18V0.545454H95.223V7.74716H102.714V0.545454H106.396V18H102.714V10.7898H95.223V18H91.5327ZM115.286 18.2557C113.962 18.2557 112.817 17.9744 111.851 17.4119C110.891 16.8437 110.149 16.054 109.626 15.0426C109.104 14.0256 108.842 12.8466 108.842 11.5057C108.842 10.1534 109.104 8.97159 109.626 7.96023C110.149 6.94318 110.891 6.15341 111.851 5.59091C112.817 5.02273 113.962 4.73864 115.286 4.73864C116.609 4.73864 117.751 5.02273 118.712 5.59091C119.678 6.15341 120.422 6.94318 120.945 7.96023C121.467 8.97159 121.729 10.1534 121.729 11.5057C121.729 12.8466 121.467 14.0256 120.945 15.0426C120.422 16.054 119.678 16.8437 118.712 17.4119C117.751 17.9744 116.609 18.2557 115.286 18.2557ZM115.303 15.4432C115.905 15.4432 116.408 15.2727 116.811 14.9318C117.214 14.5852 117.518 14.1136 117.723 13.517C117.933 12.9205 118.038 12.2415 118.038 11.4801C118.038 10.7188 117.933 10.0398 117.723 9.44318C117.518 8.84659 117.214 8.375 116.811 8.02841C116.408 7.68182 115.905 7.50852 115.303 7.50852C114.695 7.50852 114.183 7.68182 113.768 8.02841C113.359 8.375 113.05 8.84659 112.839 9.44318C112.635 10.0398 112.533 10.7188 112.533 11.4801C112.533 12.2415 112.635 12.9205 112.839 13.517C113.05 14.1136 113.359 14.5852 113.768 14.9318C114.183 15.2727 114.695 15.4432 115.303 15.4432ZM131.053 4.90909V7.63636H123.169V4.90909H131.053ZM124.959 1.77273H128.589V13.9773C128.589 14.3125 128.641 14.5739 128.743 14.7614C128.845 14.9432 128.987 15.071 129.169 15.1449C129.357 15.2187 129.572 15.2557 129.817 15.2557C129.987 15.2557 130.158 15.2415 130.328 15.2131C130.499 15.179 130.629 15.1534 130.72 15.1364L131.291 17.8381C131.109 17.8949 130.854 17.9602 130.524 18.0341C130.195 18.1136 129.794 18.1619 129.322 18.179C128.447 18.2131 127.68 18.0966 127.021 17.8295C126.368 17.5625 125.859 17.1477 125.496 16.5852C125.132 16.0227 124.953 15.3125 124.959 14.4545V1.77273ZM139.243 18.2557C137.896 18.2557 136.737 17.983 135.766 17.4375C134.8 16.8864 134.055 16.108 133.533 15.1023C133.01 14.0909 132.749 12.8949 132.749 11.5142C132.749 10.1676 133.01 8.9858 133.533 7.96875C134.055 6.9517 134.791 6.15909 135.74 5.59091C136.695 5.02273 137.814 4.73864 139.098 4.73864C139.962 4.73864 140.766 4.87784 141.51 5.15625C142.26 5.42898 142.913 5.84091 143.47 6.39205C144.033 6.94318 144.47 7.63636 144.783 8.47159C145.095 9.30114 145.251 10.2727 145.251 11.3864V12.3835H134.197V10.1335H141.834C141.834 9.6108 141.72 9.14773 141.493 8.74432C141.266 8.34091 140.95 8.02557 140.547 7.7983C140.149 7.56534 139.686 7.44886 139.158 7.44886C138.607 7.44886 138.118 7.5767 137.692 7.83239C137.271 8.08239 136.942 8.42045 136.703 8.84659C136.464 9.26705 136.342 9.7358 136.337 10.2528V12.392C136.337 13.0398 136.456 13.5994 136.695 14.071C136.939 14.5426 137.283 14.9062 137.726 15.1619C138.169 15.4176 138.695 15.5455 139.303 15.5455C139.706 15.5455 140.075 15.4886 140.411 15.375C140.746 15.2614 141.033 15.0909 141.271 14.8636C141.51 14.6364 141.692 14.358 141.817 14.0284L145.175 14.25C145.004 15.0568 144.655 15.7614 144.126 16.3636C143.604 16.9602 142.928 17.4261 142.098 17.7614C141.274 18.0909 140.322 18.2557 139.243 18.2557ZM151.251 0.545454V18H147.621V0.545454H151.251Z" fill="#0A66BB"/>
<path d="M57.4183 0.545454H59.9411L65.8729 15.0341H66.0774L72.0092 0.545454H74.532V18H72.5547V4.73864H72.3842L66.9297 18H65.0206L59.5661 4.73864H59.3956V18H57.4183V0.545454ZM79.7926 22.9091C79.4517 22.9091 79.1477 22.8807 78.8807 22.8239C78.6136 22.7727 78.429 22.7216 78.3267 22.6705L78.8381 20.8977C79.3267 21.0227 79.7585 21.0682 80.1335 21.0341C80.5085 21 80.8409 20.8324 81.1307 20.5312C81.4261 20.2358 81.696 19.7557 81.9403 19.0909L82.3153 18.0682L77.4744 4.90909H79.6562L83.2699 15.3409H83.4062L87.0199 4.90909H89.2017L83.6449 19.9091C83.3949 20.5852 83.0852 21.1449 82.7159 21.5881C82.3466 22.0369 81.9176 22.3693 81.429 22.5852C80.946 22.8011 80.4006 22.9091 79.7926 22.9091Z" fill="black"/>
</svg>
